<svg width="96" height="96" viewBox="0 0 96 96" fill="none" xmlns="http://www.w3.org/2000/svg">
  <defs>
    <linearGradient id="bg" x1="14" y1="12" x2="82" y2="84" gradientUnits="userSpaceOnUse">
      <stop stop-color="#775BFF"/>
      <stop offset="0.5" stop-color="#1E8BFF"/>
      <stop offset="1" stop-color="#FF7A18"/>
    </linearGradient>
    <linearGradient id="leaf" x1="52" y1="24" x2="74" y2="46" gradientUnits="userSpaceOnUse">
      <stop stop-color="#D7FF6B"/>
      <stop offset="1" stop-color="#7BE66E"/>
    </linearGradient>
    <linearGradient id="bowl" x1="28" y1="50" x2="69" y2="71" gradientUnits="userSpaceOnUse">
      <stop stop-color="white"/>
      <stop offset="1" stop-color="#F3F7FF"/>
    </linearGradient>
  </defs>
  <rect x="8" y="8" width="80" height="80" rx="24" fill="url(#bg)"/>
  <path d="M58 23C66.8 23.6 73 29.1 73.3 38.2C64.6 37.7 58.5 32.1 58 23Z" fill="url(#leaf)"/>
  <path d="M56.5 28.5C51.4 33.6 48.5 40.5 48 48.4" stroke="#D7FF6B" stroke-width="3" stroke-linecap="round"/>
  <path d="M27 54C27 66.4 36.8 74 48.2 74C59.6 74 69 66.3 69 54H27Z" fill="url(#bowl)"/>
  <path d="M24.5 53.5H71.5" stroke="white" stroke-width="6" stroke-linecap="round"/>
  <path d="M35 47C37.6 42.6 42 39.8 47.3 39.8C52.6 39.8 57 42.5 59.8 46.9" stroke="white" stroke-width="3.6" stroke-linecap="round"/>
  <circle cx="38" cy="44" r="2.6" fill="#D7FF6B"/>
  <circle cx="48" cy="36" r="2.9" fill="#FFD36B"/>
  <circle cx="58" cy="44" r="2.6" fill="#FF9C6B"/>
</svg>
